<svg id="Layer_1" data-name="Layer 1" xmlns="http://www.w3.org/2000/svg" xmlns:xlink="http://www.w3.org/1999/xlink" viewBox="0 0 192 148"><defs><style>.cls-1{fill:url(#linear-gradient);}.cls-2{fill:url(#linear-gradient-2);}.cls-3{fill:url(#linear-gradient-3);}.cls-4{fill:url(#linear-gradient-4);}.cls-5{fill:url(#linear-gradient-5);}.cls-6{fill:url(#linear-gradient-6);}.cls-7{fill:url(#linear-gradient-7);}</style><linearGradient id="linear-gradient" x1="130.69" y1="-28.69" x2="-6.72" y2="69.8" gradientUnits="userSpaceOnUse"><stop offset="0" stop-color="#0682ce"/><stop offset="1" stop-color="#7ac943"/></linearGradient><linearGradient id="linear-gradient-2" x1="152.56" y1="1.83" x2="15.15" y2="100.32" xlink:href="#linear-gradient"/><linearGradient id="linear-gradient-3" x1="164.73" y1="18.81" x2="27.32" y2="117.3" xlink:href="#linear-gradient"/><linearGradient id="linear-gradient-4" x1="182.2" y1="43.19" x2="44.8" y2="141.68" xlink:href="#linear-gradient"/><linearGradient id="linear-gradient-5" x1="190.64" y1="54.95" x2="53.23" y2="153.44" xlink:href="#linear-gradient"/><linearGradient id="linear-gradient-6" x1="202.66" y1="71.73" x2="65.26" y2="170.22" xlink:href="#linear-gradient"/><linearGradient id="linear-gradient-7" x1="161.76" y1="14.66" x2="24.35" y2="113.15" xlink:href="#linear-gradient"/></defs><path class="cls-1" d="M30.34,65.53h4.78a1,1,0,0,0,1.09-1.16V50.72l9-.07c11.26,0,19.25-5.87,19.25-16.45s-7.92-16.66-19-16.66H30.34a1.08,1.08,0,0,0-1.16,1.16V64.37A1.08,1.08,0,0,0,30.34,65.53Zm5.87-41.71h8.94c7.24,0,12,4.1,12,10.31s-4.71,10.24-12,10.24H36.21Z"/><path class="cls-2" d="M85.29,66.14c5.8,0,9.48-1.77,11.74-3.48A1.2,1.2,0,0,0,97.3,61l-1.78-2.93c-.34-.68-.88-.75-1.5-.27a13.52,13.52,0,0,1-8,2.59c-5.87,0-10.1-3.62-10.92-8.6H98.39a1.11,1.11,0,0,0,1.16-1.16V49.56c0-9.42-6.07-16-15.08-16-9.49,0-16.11,7.09-16.11,16.31S75.53,66.14,85.29,66.14ZM84.67,39a8.31,8.31,0,0,1,8.4,7.79V47H75.18A9.32,9.32,0,0,1,84.67,39Z"/><path class="cls-3" d="M52,81.8A20.3,20.3,0,0,1,62.9,84.66a1,1,0,0,0,1.57-.34l2-3.62a1,1,0,0,0-.28-1.57c-2.45-1.57-7.3-3.89-14.81-3.89C36.35,75.24,26,85.75,26,99.88s10.1,24.58,25.39,24.58c7.51,0,12.29-2.26,14.54-3.62.82-.55,1-1.09.55-1.71l-2-3.62a1,1,0,0,0-1.57-.34,21.41,21.41,0,0,1-11,2.73c-11.4,0-18.7-7.3-18.7-18.08S40.78,81.8,52,81.8Z"/><path class="cls-4" d="M102.42,92.44H98.53a1.1,1.1,0,0,0-1.16,1.1l-.21,3.07A14.46,14.46,0,0,0,86,91.83c-8.6,0-15.22,7-15.22,16.31s6.55,16.32,15.15,16.32a13.75,13.75,0,0,0,11.47-5.6l.2,3.89a1,1,0,0,0,1.1,1.09h3.75a1,1,0,0,0,1.16-1.16V93.6A1,1,0,0,0,102.42,92.44Zm-15.15,25.8a10.11,10.11,0,0,1,0-20.2c5.87,0,9.76,4.3,9.83,10.1S93.14,118.24,87.27,118.24Z"/><path class="cls-5" d="M131.22,91.9a10.76,10.76,0,0,0-1.5-.07c-5.6,0-9.35,3.07-10.65,6.76l-.2-5a1.06,1.06,0,0,0-1.16-1.1h-3.55A1.08,1.08,0,0,0,113,93.6v29.08a1.08,1.08,0,0,0,1.16,1.16h4.5a1,1,0,0,0,1.16-1.16V107.12c.07-4.44,3.07-8.81,8.94-8.81a6.53,6.53,0,0,1,1.78.21c.75.13,1.23-.14,1.3-1l.41-4.37A1.09,1.09,0,0,0,131.22,91.9Z"/><path class="cls-6" d="M150.74,91.83c-9.48,0-16.11,7.1-16.11,16.31s7.17,16.32,16.93,16.32c5.8,0,9.49-1.78,11.74-3.49a1.18,1.18,0,0,0,.28-1.63l-1.78-2.94c-.34-.68-.89-.75-1.5-.27a13.46,13.46,0,0,1-8,2.59c-5.87,0-10.1-3.62-10.92-8.6h23.28a1.11,1.11,0,0,0,1.16-1.16v-1.09C165.83,98.45,159.75,91.83,150.74,91.83Zm8.6,13.45H141.46A9.31,9.31,0,0,1,151,97.36a8.3,8.3,0,0,1,8.39,7.78Z"/><path class="cls-7" d="M149,44.74c2.84,0,17-.34,17-6.86S151.83,31,149,31s-17,.33-17,6.85c0,2.81,2.61,4.47,5.82,5.45-1.53,3.66-5.13,11.12-10.44,15.11a1.5,1.5,0,0,0-.49.19,8.71,8.71,0,0,1-4.77,1.44c-3.9,0-6.28-1.71-6.28-5.87V39.8H127.2a1.06,1.06,0,0,0,1.09-1.16V35.29a1,1,0,0,0-1.09-1.16H115.87V24.51a1,1,0,0,0-1.16-1.16H110.4a1.08,1.08,0,0,0-1.16,1.16v9.62h-5.39a1.08,1.08,0,0,0-1.16,1.16v3.35a1.11,1.11,0,0,0,1.16,1.16h5.26V54.61c0,7,4.18,11,10.49,11.49a12.24,12.24,0,0,0,2.14.2,15,15,0,0,0,9-3.31c7.06-5.26,11.34-14.92,12.76-18.57A51,51,0,0,0,149,44.74Zm0-8.43a30.78,30.78,0,0,1,10.71,1.57A30.72,30.72,0,0,1,149,39.46a30.69,30.69,0,0,1-10.7-1.58A30.75,30.75,0,0,1,149,36.31Z"/></svg>